# xmcd
#
# Track frame offsets: 
#        150
#        13212
#        24013
#        35749
#        48564
#        62082
#        71743
#        83588
#        94244
#        104044
#        114157
#        124038
#
# Disc length: 1788 seconds
#
# Revision: 0
# Processed by: cddbd v1.5.2PL0 Copyright (c) Steve Scherf et al.
# Submitted via: ExactAudioCopy v0.99pb5
#
DISCID=9d06fa0c
DTITLE=B.B. King - Mr. Blues
DYEAR=1900
DGENRE=Blues
TTITLE0=Young Dreamers
TTITLE1=By Myself
TTITLE2=Chains of Love
TTITLE3=A Mother's Love
TTITLE4=Blues at Midnight
TTITLE5=Sneakin' Around
TTITLE6=On My Road of Honor
TTITLE7=Tomorrow Night
TTITLE8=My Baby's Comin' Home
TTITLE9=Guess Who?
TTITLE10=You Ask Me
TTITLE11=I'm Gonna Sit in 'Til You Give In
EXTD=
EXTT0=
EXTT1=
EXTT2=
EXTT3=
EXTT4=
EXTT5=
EXTT6=
EXTT7=
EXTT8=
EXTT9=
EXTT10=
EXTT11=
PLAYORDER=
